<svg xmlns="http://www.w3.org/2000/svg" viewBox="0 0 800 100" width="800" height="100">
  <style>
    /* Move cats across screen */
    .cat1 { animation: moveAcross 8s linear infinite; }
    .cat2 { animation: moveAcross 6s linear infinite; animation-delay: -2s; }
    .cat3 { animation: moveAcross 10s linear infinite; animation-delay: -4s; }
    .cat4 { animation: moveAcross 7s linear infinite; animation-delay: -1s; }

    @keyframes moveAcross {
      0% { transform: translateX(820px); }
      100% { transform: translateX(-150px); }
    }

    /* Running leg animations */
    .back-leg-1 { animation: backLeg1 0.2s ease-in-out infinite alternate; transform-origin: 15px 55px; }
    .back-leg-2 { animation: backLeg2 0.2s ease-in-out infinite alternate; transform-origin: 25px 55px; }
    .front-leg-1 { animation: frontLeg1 0.2s ease-in-out infinite alternate; transform-origin: 55px 55px; }
    .front-leg-2 { animation: frontLeg2 0.2s ease-in-out infinite alternate; transform-origin: 65px 55px; }

    @keyframes backLeg1 {
      0% { transform: rotate(-40deg); }
      100% { transform: rotate(30deg); }
    }
    @keyframes backLeg2 {
      0% { transform: rotate(30deg); }
      100% { transform: rotate(-40deg); }
    }
    @keyframes frontLeg1 {
      0% { transform: rotate(35deg); }
      100% { transform: rotate(-35deg); }
    }
    @keyframes frontLeg2 {
      0% { transform: rotate(-35deg); }
      100% { transform: rotate(35deg); }
    }

    /* Body bounce while running */
    .cat-body { animation: bodyBounce 0.2s ease-in-out infinite; }
    @keyframes bodyBounce {
      0%, 100% { transform: translateY(0); }
      50% { transform: translateY(-3px); }
    }

    /* Tail swish */
    .tail { animation: tailSwish 0.3s ease-in-out infinite alternate; transform-origin: 8px 50px; }
    @keyframes tailSwish {
      0% { transform: rotate(-15deg); }
      100% { transform: rotate(15deg); }
    }
  </style>

  <!-- Background -->
  <rect width="800" height="100" fill="#FFE4E8" rx="10"/>

  <!-- Cat 1 - Hot Pink -->
  <g class="cat1" transform="translate(90,0) scale(-1,1)">
    <g class="cat-body" fill="#FF69B4">
      <!-- Body -->
      <ellipse cx="40" cy="50" rx="28" ry="14"/>
      <!-- Head -->
      <circle cx="72" cy="42" r="12"/>
      <!-- Ears -->
      <polygon points="65,32 68,20 74,32"/>
      <polygon points="74,30 78,18 84,30"/>
      <!-- Eye -->
      <circle cx="76" cy="40" r="2" fill="#fff"/>
      <circle cx="76" cy="40" r="1" fill="#333"/>
      <!-- Nose -->
      <polygon points="82,44 80,47 84,47" fill="#FF1493"/>
    </g>
    <!-- Animated Legs -->
    <rect class="back-leg-1" x="12" y="55" width="6" height="20" rx="3" fill="#FF69B4"/>
    <rect class="back-leg-2" x="22" y="55" width="6" height="20" rx="3" fill="#FF69B4"/>
    <rect class="front-leg-1" x="52" y="55" width="6" height="20" rx="3" fill="#FF69B4"/>
    <rect class="front-leg-2" x="62" y="55" width="6" height="20" rx="3" fill="#FF69B4"/>
    <!-- Tail -->
    <path class="tail" d="M 8 50 Q -5 35 0 25" stroke="#FF69B4" stroke-width="6" fill="none" stroke-linecap="round"/>
  </g>

  <!-- Cat 2 - Light Pink (smaller, faster) -->
  <g class="cat2" transform="translate(75,0) scale(-1,1)">
    <g class="cat-body" fill="#FFB6C1">
      <ellipse cx="35" cy="55" rx="22" ry="11"/>
      <circle cx="60" cy="48" r="10"/>
      <polygon points="54,40 56,30 62,40"/>
      <polygon points="62,38 65,28 70,38"/>
      <circle cx="64" cy="46" r="1.5" fill="#fff"/>
      <circle cx="64" cy="46" r="0.8" fill="#333"/>
      <polygon points="69,50 67,52 71,52" fill="#FF69B4"/>
    </g>
    <rect class="back-leg-1" x="14" y="58" width="5" height="16" rx="2.5" fill="#FFB6C1"/>
    <rect class="back-leg-2" x="22" y="58" width="5" height="16" rx="2.5" fill="#FFB6C1"/>
    <rect class="front-leg-1" x="46" y="58" width="5" height="16" rx="2.5" fill="#FFB6C1"/>
    <rect class="front-leg-2" x="54" y="58" width="5" height="16" rx="2.5" fill="#FFB6C1"/>
    <path class="tail" d="M 10 55 Q 0 45 5 35" stroke="#FFB6C1" stroke-width="5" fill="none" stroke-linecap="round"/>
  </g>

  <!-- Cat 3 - Deep Pink (larger, slower) -->
  <g class="cat3" transform="translate(110,0) scale(-1,1)">
    <g class="cat-body" fill="#FF1493">
      <ellipse cx="45" cy="48" rx="32" ry="16"/>
      <circle cx="82" cy="38" r="14"/>
      <polygon points="74,26 78,12 85,26"/>
      <polygon points="84,24 89,10 96,24"/>
      <circle cx="87" cy="36" r="2.5" fill="#fff"/>
      <circle cx="87" cy="36" r="1.2" fill="#333"/>
      <polygon points="94,41 91,44 97,44" fill="#C71585"/>
    </g>
    <rect class="back-leg-1" x="14" y="54" width="7" height="24" rx="3.5" fill="#FF1493"/>
    <rect class="back-leg-2" x="26" y="54" width="7" height="24" rx="3.5" fill="#FF1493"/>
    <rect class="front-leg-1" x="58" y="54" width="7" height="24" rx="3.5" fill="#FF1493"/>
    <rect class="front-leg-2" x="70" y="54" width="7" height="24" rx="3.5" fill="#FF1493"/>
    <path class="tail" d="M 8 48 Q -10 30 -2 18" stroke="#FF1493" stroke-width="7" fill="none" stroke-linecap="round"/>
  </g>

  <!-- Cat 4 - Pale Violet Red -->
  <g class="cat4" transform="translate(85,0) scale(-1,1)">
    <g class="cat-body" fill="#DB7093">
      <ellipse cx="38" cy="52" rx="25" ry="13"/>
      <circle cx="66" cy="44" r="11"/>
      <polygon points="59,35 62,23 68,35"/>
      <polygon points="68,33 72,21 78,33"/>
      <circle cx="70" cy="42" r="1.8" fill="#fff"/>
      <circle cx="70" cy="42" r="0.9" fill="#333"/>
      <polygon points="76,46 74,49 78,49" fill="#C71585"/>
    </g>
    <rect class="back-leg-1" x="14" y="56" width="6" height="18" rx="3" fill="#DB7093"/>
    <rect class="back-leg-2" x="24" y="56" width="6" height="18" rx="3" fill="#DB7093"/>
    <rect class="front-leg-1" x="50" y="56" width="6" height="18" rx="3" fill="#DB7093"/>
    <rect class="front-leg-2" x="60" y="56" width="6" height="18" rx="3" fill="#DB7093"/>
    <path class="tail" d="M 10 52 Q -2 40 3 28" stroke="#DB7093" stroke-width="6" fill="none" stroke-linecap="round"/>
  </g>
</svg>

